<?xml version="1.0" encoding="utf-8"?>
<!-- Generator: Adobe Illustrator 16.0.0, SVG Export Plug-In . SVG Version: 6.00 Build 0)  -->
<!DOCTYPE svg PUBLIC "-//W3C//DTD SVG 1.1//EN" "http://www.w3.org/Graphics/SVG/1.1/DTD/svg11.dtd">
<svg version="1.1" id="Layer_1" xmlns="http://www.w3.org/2000/svg" xmlns:xlink="http://www.w3.org/1999/xlink" x="0px" y="0px"
	 width="60px" height="60px" viewBox="0 0 60 60" enable-background="new 0 0 60 60" xml:space="preserve">
<path d="M0,0v60h60V0H0z M54,55.129h-2.4V38.328h-6v16.801H43.2V38.328h-6v16.801h-2.4V35.928H54V55.129z M54,12.942H37.2v6.599H54
	v2.4H37.2v6.599H54v2.4H34.8V10.542H54V12.942z M54,7.128H31.2v48.001H6v-2.4h9.15V7.128h-7.8v-2.4h18v2.4h-7.8v45.601H28.8v-48H54
	V7.128z"/>
<g>
	<g>
		<polygon fill="#F1F2F2" points="130.125,68.625 88.125,68.625 88.125,64.625 126.125,64.625 126.125,-15.375 168.125,-15.375 
			168.125,-11.375 130.125,-11.375 		"/>
	</g>
	<g>
		<polygon fill="#F1F2F2" points="107.375,66.625 103.375,66.625 103.375,-11.375 90.375,-11.375 90.375,-15.375 120.375,-15.375 
			120.375,-11.375 107.375,-11.375 		"/>
	</g>
	<g>
		<polygon fill="#F1F2F2" points="140.125,-1.685 140.125,9.315 168.125,9.315 168.125,13.315 140.125,13.315 140.125,24.315 
			168.125,24.315 168.125,28.315 136.125,28.315 136.125,-5.685 168.125,-5.685 168.125,-1.685 		"/>
	</g>
	<g>
		<polygon fill="#F1F2F2" points="168.125,36.625 168.125,68.625 164.125,68.625 164.125,40.625 154.125,40.625 154.125,68.625 
			150.125,68.625 150.125,40.625 140.125,40.625 140.125,68.625 136.125,68.625 136.125,36.625 		"/>
	</g>
</g>
</svg>
